<?xml version="1.0" encoding="utf-8"?>
<!-- Generator: Adobe Illustrator 20.1.0, SVG Export Plug-In . SVG Version: 6.00 Build 0)  -->
<svg version="1.1" id="Layer_1" xmlns="http://www.w3.org/2000/svg" xmlns:xlink="http://www.w3.org/1999/xlink" x="0px" y="0px"
	 viewBox="0 0 595.3 841.9" style="enable-background:new 0 0 595.3 841.9;" xml:space="preserve">
<style type="text/css">
	.st0{fill:none;stroke:#FFFFFF;stroke-miterlimit:10;}
</style>
<g>
	<path class="st0" d="M186.4,393.3c-5.7,2.7-18.7,9.3-13.2,11.7c5.4,2.3,35.8,17.9,35.8,17.9s6.2,2.3,6.2,21
		c0,18.7,3.3,88.6,52.9,126.1c16.8,12.7,36.6,33.5,77.8,32.7s149.5,0,149.5,0s16.8,3.5,0.4-13.2c-50.6-51.8-159.9-232.8-159.9-232.8
		s-20.3-40.5-63.9-35S217.5,373,217.5,373s-0.8,5.1-13.2,11.3C191.8,390.6,191.3,391,186.4,393.3z"/>
	<circle class="st0" cx="258.2" cy="370.5" r="7.6"/>
</g>
</svg>
