<?xml version="1.0" encoding="utf-8"?>
<!-- Generator: Adobe Illustrator 20.1.0, SVG Export Plug-In . SVG Version: 6.00 Build 0)  -->
<svg version="1.1" id="Layer_1" xmlns="http://www.w3.org/2000/svg" xmlns:xlink="http://www.w3.org/1999/xlink" x="0px" y="0px"
	 viewBox="0 0 595.3 841.9" style="enable-background:new 0 0 595.3 841.9;" xml:space="preserve">
<style type="text/css">
	.st0{fill:none;stroke:#FFFFFF;stroke-miterlimit:10;}
</style>
<g>
	<path class="st0" d="M167.6,563.5c5.8,0,8.4-5,4-7.5l-15.9-9.2l-24.9-14.4c-2.3-1.3-5.7-1.3-8,0l-24.9,14.4L81.9,556
		c-4.4,2.6-1.8,7.5,4,7.5v41h80.9v-41"/>
</g>
<rect x="214.8" y="317.6" class="st0" width="106.2" height="285.4"/>
<line class="st0" x1="234.5" y1="347.9" x2="299.8" y2="347.9"/>
<line class="st0" x1="235.3" y1="370.7" x2="300.5" y2="370.7"/>
<line class="st0" x1="234.9" y1="394.4" x2="300.1" y2="394.4"/>
<line class="st0" x1="235.7" y1="417.1" x2="300.9" y2="417.1"/>
<line class="st0" x1="235.1" y1="442.6" x2="300.3" y2="442.6"/>
<line class="st0" x1="235.9" y1="465.3" x2="301.1" y2="465.3"/>
<line class="st0" x1="235.5" y1="489" x2="300.7" y2="489"/>
<line class="st0" x1="236.2" y1="511.7" x2="301.5" y2="511.7"/>
<rect x="321" y="399.9" class="st0" width="84.2" height="203.1"/>
<line class="st0" x1="329.3" y1="422.4" x2="390.4" y2="422.4"/>
<line class="st0" x1="330" y1="445.2" x2="391.2" y2="445.2"/>
<line class="st0" x1="329.7" y1="468.9" x2="390.8" y2="468.9"/>
<line class="st0" x1="330.4" y1="491.6" x2="391.5" y2="491.6"/>
<line class="st0" x1="329.9" y1="517.1" x2="391" y2="517.1"/>
<rect x="405.2" y="317.6" class="st0" width="106.2" height="285.4"/>
<line class="st0" x1="424.9" y1="347.9" x2="490.1" y2="347.9"/>
<line class="st0" x1="425.6" y1="370.7" x2="490.9" y2="370.7"/>
<line class="st0" x1="425.3" y1="394.4" x2="490.5" y2="394.4"/>
<line class="st0" x1="426" y1="417.1" x2="491.2" y2="417.1"/>
<line class="st0" x1="425.5" y1="442.6" x2="490.7" y2="442.6"/>
<line class="st0" x1="426.2" y1="465.3" x2="491.4" y2="465.3"/>
<line class="st0" x1="425.8" y1="489" x2="491" y2="489"/>
<line class="st0" x1="426.6" y1="511.7" x2="491.8" y2="511.7"/>
</svg>
