<?xml version="1.0" encoding="utf-8"?>
<!-- Generator: Adobe Illustrator 20.1.0, SVG Export Plug-In . SVG Version: 6.00 Build 0)  -->
<svg version="1.1" id="Layer_1" xmlns="http://www.w3.org/2000/svg" xmlns:xlink="http://www.w3.org/1999/xlink" x="0px" y="0px"
	 viewBox="0 0 595.3 841.9" style="enable-background:new 0 0 595.3 841.9;" xml:space="preserve">
<style type="text/css">
	.st0{fill:none;stroke:#FFFFFF;stroke-miterlimit:10;}
</style>
<path class="st0" d="M178,466.4c-13,0-31.2-3.8-48.5,18.5c-20,25.8-22.6,26-28.2,36c-2.1,3.8-3.5,9.9,4.4,16.9s14.3,2.9,17.6,0
	c4.2-3.7,11.4-12.1,14.5-16.9c1.2-1.8,9.3-18.2,8.4,5.1s-0.9,105.3-0.9,105.3s-0.9,17.6,13.2,17.6c14.1,0,15-14.1,15-14.1
	s0.8-44.5,0-60c-0.1-2.5-0.6-8.2,4.4-8.8c4.8-0.6,4.5,6.4,4.4,8.8c-0.7,15.3,0,60,0,60s0.9,14.1,15,14.1s13.2-17.6,13.2-17.6
	s0-82-0.9-105.3s8.4-6.3,9.6-4.5c3.2,4.9,9.5,12.8,13.4,16.3c3.3,3,9.7,7.1,17.6,0c7.9-7.1,6.8-13.3,4.4-16.9
	c-6-9.1-8.2-10.2-28.2-36C210.7,464.6,191,466.4,178,466.4z"/>
<circle class="st0" cx="178" cy="425.6" r="31.5"/>
<path class="st0" d="M378.1,537.5c-0.8,18.6,0,94.3,0,94.3s1.1,17.1,18.2,17.1s16.1-25.7,16.1-25.7s0-57.8-0.1-85.2
	c0-1.6,1.4-4.8,3.1-4.7c77.6,4.9-3.5-92.9-4-106.7c-1.1-28.3,10.2-7.6,11.6-5.4c3.9,5.9,24.4,36.9,29.1,41.3
	c4,3.6,14.2,19.3,25.7,8.6c9.5-8.8,8.3-16.1,5.4-20.6c-7.3-11.1-27.1-42.4-51.4-73.7c-19.1-24.6-43.2-22.5-58.9-22.5
	c-15.8,0-37.9-4.6-58.9,22.5c-24.3,31.3-44.6,57.3-51.4,69.4c-2.6,4.6-4.3,12,5.4,20.6c9.6,8.6,17.4,3.5,21.4,0
	c5.1-4.5,30.9-40.4,34.8-46.3c1.4-2.2,11.3-22.2,10.2,6.2c-0.5,13-60.8,100.4-25.2,107.9c3.7,0.8,24.4-1.3,24.3,5.1
	c-0.7,29.2-0.1,83.6-0.1,83.6s-1.1,25.7,16.1,25.7s18.2-17.1,18.2-17.1s1-75.5,0-94.3H378.1z"/>
<circle class="st0" cx="372.8" cy="300.7" r="44.2"/>
</svg>
