<?xml version="1.0" encoding="utf-8"?>
<!-- Generator: Adobe Illustrator 20.1.0, SVG Export Plug-In . SVG Version: 6.00 Build 0)  -->
<svg version="1.1" id="Layer_1" xmlns="http://www.w3.org/2000/svg" xmlns:xlink="http://www.w3.org/1999/xlink" x="0px" y="0px"
	 viewBox="0 0 595.3 841.9" style="enable-background:new 0 0 595.3 841.9;" xml:space="preserve">
<style type="text/css">
	.st0{fill:none;stroke:#FFFFFF;stroke-miterlimit:10;}
</style>
<ellipse transform="matrix(0.9364 -0.3509 0.3509 0.9364 -135.6602 84.3759)" class="st0" cx="165" cy="416.5" rx="44" ry="60.2"/>
<ellipse transform="matrix(0.3509 -0.9364 0.9364 0.3509 -102.3161 685.4592)" class="st0" cx="443.3" cy="416.5" rx="60.2" ry="44"/>
<ellipse transform="matrix(0.9748 -0.2232 0.2232 0.9748 -62.7271 62.3114)" class="st0" cx="244.3" cy="308.6" rx="48.8" ry="66.7"/>
<ellipse transform="matrix(0.2294 -0.9733 0.9733 0.2294 -19.6383 592.4404)" class="st0" cx="364.3" cy="308.6" rx="66.7" ry="48.8"/>
<path class="st0" d="M310.6,566c21.1,1.1,33.6,5.3,42.2,12.1c65.8,52.4,83.2-1.8,78.5-21.6c-18.8-79.5-45.2-106-73.3-126.4
	c-20-14.6-37.1-20.5-51.4-21.1c-14.3,0.6-31.3,6.5-51.4,21.1c-28.1,20.4-54.6,46.9-73.3,126.4c-4.7,19.8,12.8,74,78.5,21.6
	c8.6-6.8,21.1-11,42.2-12.1H310.6z"/>
</svg>
