<?xml version="1.0" encoding="utf-8"?>
<!-- Generator: Adobe Illustrator 20.1.0, SVG Export Plug-In . SVG Version: 6.00 Build 0)  -->
<svg version="1.1" id="Layer_1" xmlns="http://www.w3.org/2000/svg" xmlns:xlink="http://www.w3.org/1999/xlink" x="0px" y="0px"
	 viewBox="0 0 595.3 841.9" style="enable-background:new 0 0 595.3 841.9;" xml:space="preserve">
<style type="text/css">
	.st0{fill:none;stroke:#FFFFFF;stroke-miterlimit:10;}
</style>
<g>
	<g>
		<path class="st0" d="M340.9,258c22.8,25,73.5,42.2,130.6,32.6c46.1-7.7,36.5,48,36.5,48c-2.6,100.5,19.9,320.7-180,320.7
			S150.5,439.2,148,338.7c0,0-9.6-55.7,36.5-48c57.1,9.5,109.5-9.6,130.6-32.6C315,258,326.7,242.4,340.9,258z"/>
	</g>
	<path class="st0" d="M328,284.3c0-35.4,16.5,48,138.8,28.2c6.7-1.1,24.8-11.1,23.7,13.4c-1.9,41,1.8,129.3-17.9,199.7
		c-24.3,86.7-65.2,107.5-144.5,113.3C319.4,639.5,328,478.8,328,284.3z"/>
</g>
</svg>
