<?xml version="1.0" encoding="utf-8"?>
<!-- Generator: Adobe Illustrator 20.1.0, SVG Export Plug-In . SVG Version: 6.00 Build 0)  -->
<svg version="1.1" id="Layer_1" xmlns="http://www.w3.org/2000/svg" xmlns:xlink="http://www.w3.org/1999/xlink" x="0px" y="0px"
	 viewBox="0 0 595.3 841.9" style="enable-background:new 0 0 595.3 841.9;" xml:space="preserve">
<style type="text/css">
	.st0{fill:none;stroke:#FFFFFF;stroke-miterlimit:10;}
</style>
<g>
	<path class="st0" d="M303,551.9c0,0-127.3,37.4-158.4-118.4c-8.4-42.2-78.4-81,0-172.2s109.1-41.8,147.5-46
		c37-4.1,65.7-67.6,148.4-11.2s36.1,93.6,36.7,126.5c1.1,60.4,118.1,166.8-70.5,231.1c-34.6,11.8-56.8-5.5-56.8-5.5
		s-8.8,92.8,11.4,112.7c11.3,11.1,67.3,18.5,59.7,21.3c-39.4,14.4-109.9,25.6-177.3,0c-13.2-5,47.8-4.3,54-17.1
		c13.4-27.8,7-107.2,6.5-143.6c-0.3-25.5-49.5-89-49.5-89c13-6.9,55.6,65.1,57,46.7c2-25.5-3.6-133.9,0-130.5
		c0,0,14.1,87.4,24.8,90.9c15.5,5.2,48.5-74.4,50.3-68.8c0,0-44.1,79.1-38.4,157.7c1.4,19.4,1,24.5,1,24.5"/>
</g>
</svg>
