<?xml version="1.0" encoding="utf-8"?>
<!-- Generator: Adobe Illustrator 20.1.0, SVG Export Plug-In . SVG Version: 6.00 Build 0)  -->
<svg version="1.1" id="Layer_1" xmlns="http://www.w3.org/2000/svg" xmlns:xlink="http://www.w3.org/1999/xlink" x="0px" y="0px"
	 viewBox="0 0 595.3 841.9" style="enable-background:new 0 0 595.3 841.9;" xml:space="preserve">
<style type="text/css">
	.st0{fill:none;stroke:#FFFFFF;stroke-miterlimit:10;}
</style>
<g>
	<path class="st0" d="M113.4,451.1c0,0,81.9-82.8,109.8-75.1c27.9,7.7,93.4,44.3,113.6,63.6"/>
	<path class="st0" d="M235.7,505.1c0,0,141.6-109.3,193.6-91.7s121.3,61.9,121.3,61.9"/>
	<path class="st0" d="M113.4,531.1c0,0,243-72.2,441.7,0"/>
	<path class="st0" d="M333.3,500.8c0,0,175.8,93.7,189.3,140"/>
	<path class="st0" d="M380.1,500.8c0,0,106.9,39.9,159.9,115"/>
	<path class="st0" d="M469.9,508.6c0,0,64.6,34,85.2,66.7"/>
	<path class="st0" d="M358.9,515c0,0-138.7,8.3-218.6,37.2"/>
	<path class="st0" d="M390.9,533.6c0,0-193.7,16.7-233.2,55.2"/>
	<path class="st0" d="M421,552.2c0,0-153.6,12.5-200.8,43.3"/>
	<path class="st0" d="M453.6,573.9c0,0-117.8,11.1-156.3,33.2"/>
	<circle class="st0" cx="348.5" cy="343.5" r="33.2"/>
</g>
</svg>
